<svg width="285" height="376" xmlns="http://www.w3.org/2000/svg" xmlns:xlink="http://www.w3.org/1999/xlink" xml:space="preserve" overflow="hidden"><defs><clipPath id="clip0"><rect x="497" y="172" width="285" height="376"/></clipPath><clipPath id="clip1"><rect x="497" y="172" width="285" height="376"/></clipPath><clipPath id="clip2"><rect x="498" y="172" width="284" height="376"/></clipPath><clipPath id="clip3"><rect x="498" y="172" width="284" height="376"/></clipPath><clipPath id="clip4"><rect x="498" y="172" width="284" height="376"/></clipPath></defs><g clip-path="url(#clip0)" transform="translate(-497 -172)"><g clip-path="url(#clip1)"><g clip-path="url(#clip2)"><g clip-path="url(#clip3)"><g clip-path="url(#clip4)"><path d="M217.418 65.3633 230.854 65.3633 230.854 78.4499 217.418 78.4499Z" fill="#49D3FF" fill-rule="nonzero" fill-opacity="1" transform="matrix(-0.641717 -0.766941 -0.766941 0.641717 756.836 369.815)"/><path d="M224.84 83.0152C224.441 83.0152 224.051 82.8854 223.722 82.6057L213.682 74.2042C213.322 73.9045 213.102 73.485 213.062 73.0154 213.022 72.5459 213.162 72.0964 213.462 71.7367L222.083 61.4273C222.703 60.688 223.801 60.5881 224.541 61.2075L234.58 69.6089C234.94 69.9086 235.16 70.3282 235.2 70.7977 235.24 71.2672 235.1 71.7168 234.8 72.0764L226.179 82.3859C225.829 82.7955 225.34 83.0152 224.84 83.0152ZM217.268 72.6458 224.621 78.7995 231.004 71.1773 223.652 65.0236 217.268 72.6458Z" fill="#000000" fill-rule="nonzero" fill-opacity="1" transform="matrix(-1 0 0 1 782 172.137)"/><path d="M118.549 64.1245 105.093 55.823 116.661 45.6334 130.117 53.9349 118.549 64.1245Z" fill="#FF406A" fill-rule="nonzero" fill-opacity="1" transform="matrix(-1 0 0 1 782 172.137)"/><path d="M118.549 65.8727C118.229 65.8727 117.91 65.7828 117.63 65.613L104.164 57.3115C103.694 57.0218 103.384 56.5223 103.334 55.9728 103.285 55.4234 103.504 54.884 103.924 54.5143L115.492 44.3247C116.071 43.8153 116.911 43.7453 117.57 44.1449L131.036 52.4464C131.506 52.7362 131.815 53.2356 131.865 53.7851 131.915 54.3345 131.696 54.874 131.276 55.2436L119.708 65.4332C119.378 65.7229 118.969 65.8727 118.549 65.8727ZM108.02 55.5733 118.369 61.9567 127.19 54.1847 116.841 47.8012 108.02 55.5733Z" fill="#000000" fill-rule="nonzero" fill-opacity="1" transform="matrix(-1 0 0 1 782 172.137)"/><path d="M196.929 52.5563 194.941 40.6785 207.138 38.7005 209.126 50.5784 196.929 52.5563Z" fill="#FFFF00" fill-rule="nonzero" fill-opacity="1" transform="matrix(-1 0 0 1 782 172.137)"/><path d="M196.929 54.3046C196.09 54.3046 195.351 53.6952 195.211 52.846L193.223 40.9682C193.143 40.5086 193.253 40.0391 193.522 39.6595 193.792 39.2799 194.202 39.0301 194.661 38.9502L206.859 36.9623C207.798 36.8124 208.707 37.4518 208.867 38.4008L210.855 50.2787C210.935 50.7382 210.825 51.2077 210.555 51.5873 210.285 51.9669 209.876 52.2167 209.416 52.2966L197.219 54.2846C197.129 54.3046 197.029 54.3046 196.939 54.3046ZM196.959 42.127 198.367 50.5584 207.109 49.1298 205.7 40.6984 196.959 42.127Z" fill="#000000" fill-rule="nonzero" fill-opacity="1" transform="matrix(-1 0 0 1 782 172.137)"/><path d="M6.52334 87.0911 1.74821 77.2212 11.5182 74.4839 16.2334 82.3859 6.52334 87.0911Z" fill="#49D3FF" fill-rule="nonzero" fill-opacity="1" transform="matrix(-1 0 0 1 782 172.137)"/><path d="M6.52334 88.8393C6.33353 88.8393 6.13374 88.8093 5.95392 88.7394 5.51437 88.5895 5.15474 88.2699 4.95494 87.8503L0.169827 77.9804C-0.0599388 77.5108-0.0599388 76.9714 0.149847 76.5019 0.359633 76.0324 0.769215 75.6727 1.2687 75.5329L11.0387 72.7957C11.798 72.5859 12.6071 72.9056 13.0067 73.5849L17.7319 81.4868C17.9816 81.9064 18.0516 82.4158 17.9017 82.8854 17.7619 83.3549 17.4322 83.7445 16.9926 83.9543L7.28256 88.6595C7.04281 88.7794 6.78307 88.8293 6.52334 88.8293ZM4.23567 78.34 7.3425 84.7535 13.7659 81.6466 10.7091 76.5319 4.24566 78.34Z" fill="#000000" fill-rule="nonzero" fill-opacity="1" transform="matrix(-1 0 0 1 782 172.137)"/><path d="M78.0203 114.113C60.4583 77.0913 31.6177 82.9153 31.328 82.9753L29.0304 72.436C29.4 72.3561 66.582 64.8138 87.7704 109.488L78.0203 114.113Z" fill="#49D3FF" fill-rule="nonzero" fill-opacity="1" transform="matrix(-1 0 0 1 782 172.137)"/><path d="M78.0203 115.862C77.371 115.862 76.7416 115.492 76.4419 114.863 69.4091 100.038 59.7889 90.4476 47.8611 86.3718 38.8004 83.275 31.7676 84.6735 31.6976 84.6935 30.7686 84.8833 29.8295 84.2939 29.6198 83.3549L27.3221 72.8156C27.2222 72.3661 27.3121 71.8866 27.5619 71.497 27.8116 71.1074 28.2112 70.8277 28.6607 70.7378 29.0503 70.6579 67.6309 62.9657 89.3488 108.749 89.5486 109.169 89.5685 109.648 89.4187 110.088 89.2589 110.527 88.9392 110.877 88.5196 111.077L78.7696 115.702C78.5298 115.812 78.2701 115.872 78.0203 115.872ZM36.1331 80.8474C45.4136 80.8474 65.1734 84.3838 78.8395 111.796L85.4328 108.669C76.9314 91.5365 65.0835 80.5178 50.2187 75.8925 41.6075 73.2152 34.3449 73.5449 31.1482 73.8945L32.7066 81.0173C33.5757 80.9274 34.7445 80.8474 36.1431 80.8474Z" fill="#000000" fill-rule="nonzero" fill-opacity="1" transform="matrix(-1 0 0 1 782 172.137)"/><path d="M78.5098 68.6299C78.1302 67.2114 69.3991 33.5957 93.005 18.1115L98.919 27.1323C81.8664 38.3109 88.8593 65.563 88.9292 65.8328L78.5098 68.6299Z" fill="#FFFF00" fill-rule="nonzero" fill-opacity="1" transform="matrix(-1 0 0 1 782 172.137)"/><path d="M78.5098 70.3781C77.7406 70.3781 77.0313 69.8687 76.8216 69.0895 76.422 67.621 67.3612 32.8365 92.046 16.653 92.8552 16.1235 93.9341 16.3533 94.4635 17.1525L100.378 26.1733C100.627 26.5629 100.717 27.0324 100.627 27.4919 100.537 27.9415 100.258 28.3411 99.878 28.6008 83.9543 39.0401 90.5475 65.1335 90.6175 65.3932 90.8572 66.3223 90.3078 67.2813 89.3787 67.531L78.9594 70.3282C78.8095 70.3681 78.6597 70.3881 78.5098 70.3881ZM92.5255 20.569C74.2442 33.9553 78.31 59.5792 79.7985 66.4721L86.8713 64.5741C85.6525 58.4303 82.6656 37.242 96.5414 26.6728L92.5355 20.559Z" fill="#000000" fill-rule="nonzero" fill-opacity="1" transform="matrix(-1 0 0 1 782 172.137)"/><path d="M18.2713 114.593 13.0267 105.163C30.8785 95.2427 46.023 104.953 46.6623 105.372L40.7684 114.413C40.3488 114.143 30.2891 107.92 18.2713 114.603Z" fill="#FF406A" fill-rule="nonzero" fill-opacity="1" transform="matrix(-1 0 0 1 782 172.137)"/><path d="M18.2713 116.341C17.652 116.341 17.0626 116.022 16.7429 115.442L11.4983 106.012C11.0287 105.163 11.3284 104.104 12.1776 103.634 30.9084 93.2248 46.9421 103.464 47.6214 103.904 48.4305 104.433 48.6503 105.512 48.1309 106.321L42.2369 115.362C41.7174 116.161 40.6485 116.401 39.8393 115.882 39.4497 115.642 30.2092 109.958 19.1205 116.121 18.8508 116.271 18.561 116.341 18.2713 116.341ZM15.4242 105.872 18.9706 112.255C28.5608 107.68 36.8524 110.547 40.169 112.106L44.1849 105.952C40.169 103.874 28.7307 99.2786 15.4242 105.862Z" fill="#000000" fill-rule="nonzero" fill-opacity="1" transform="matrix(-1 0 0 1 782 172.137)"/><path d="M48.5105 136.71 59.2994 136.71 59.2994 147.679 48.5105 147.679Z" fill="#FFFF00" fill-rule="nonzero" fill-opacity="1" transform="matrix(-0.900091 -0.435702 -0.435702 0.900091 838.562 209.818)"/><path d="M51.4375 151.226C51.2477 151.226 51.0479 151.196 50.8681 151.126 50.4285 150.976 50.0689 150.656 49.8691 150.237L45.094 140.367C44.6744 139.498 45.034 138.449 45.9031 138.029L55.6132 133.324C56.0328 133.124 56.5123 133.094 56.9518 133.244 57.3914 133.394 57.751 133.713 57.9508 134.133L62.726 144.003C63.1455 144.872 62.7859 145.921 61.9168 146.341L52.2067 151.046C51.9669 151.166 51.7072 151.216 51.4475 151.216ZM49 140.427 52.2566 147.15 58.8199 143.973 55.5633 137.25 49 140.427Z" fill="#000000" fill-rule="nonzero" fill-opacity="1" transform="matrix(-1 0 0 1 782 172.137)"/><path d="M48.5105 3.54638 59.2994 3.54638 59.2994 14.5152 48.5105 14.5152Z" fill="#FF406A" fill-rule="nonzero" fill-opacity="1" transform="matrix(-0.900091 -0.435702 -0.435702 0.900091 780.551 196.522)"/><path d="M51.4375 18.0715C51.2477 18.0715 51.0479 18.0416 50.8681 17.9716 50.4285 17.8218 50.0689 17.5021 49.8691 17.0826L45.094 7.21264C44.6744 6.34352 45.034 5.29459 45.9031 4.87502L55.6132 0.169827C56.0328-0.0299694 56.5123-0.0599388 56.9518 0.0899082 57.3914 0.239755 57.751 0.559429 57.9508 0.979L62.726 10.8489C63.1455 11.718 62.7859 12.767 61.9168 13.1865L52.2067 17.8917C51.9669 18.0116 51.7072 18.0616 51.4475 18.0616ZM49 7.26258 52.2566 13.9857 58.8199 10.809 55.5633 4.08583 49 7.26258Z" fill="#000000" fill-rule="nonzero" fill-opacity="1" transform="matrix(-1 0 0 1 782 172.137)"/><path d="M146.41 259.115C136.261 247.747 118.819 246.758 107.45 256.908L74.474 289.125C74.474 289.125 62.8658 289.594 57.2915 298.525 53.6053 304.439 52.7661 315.148 67.7908 330.842 87.2609 351.191 94.7133 345.038 109.708 331.651L144.203 298.076C155.571 287.926 156.56 270.484 146.41 259.115Z" fill="#FFFFFF" fill-rule="nonzero" fill-opacity="1" transform="matrix(-1 0 0 1 782 172.137)"/><path d="M88.8693 345.707C82.6456 345.707 75.8326 341.771 66.5221 332.051 49.5594 314.319 52.5264 302.851 55.803 297.596 61.0477 289.185 70.9675 287.676 73.7047 287.427L106.222 255.659C118.349 244.83 136.94 245.879 147.709 257.947 158.488 270.014 157.429 288.605 145.362 299.374L110.917 332.9C102.415 340.492 96.0319 345.697 88.8593 345.697ZM125.812 251.663C119.678 251.663 113.534 253.821 108.609 258.216L75.6927 290.374C75.383 290.673 74.9734 290.853 74.5439 290.873 74.444 290.873 63.7749 291.432 58.77 299.454 56.0328 303.85 53.7152 313.62 69.0495 329.643 87.6105 349.044 93.7343 343.569 108.539 330.353L142.984 296.827C153.673 287.287 154.592 270.913 145.102 260.284 140.007 254.57 132.924 251.663 125.812 251.663Z" fill="#000000" fill-rule="nonzero" fill-opacity="1" transform="matrix(-1 0 0 1 782 172.137)"/><path d="M181.365 269.465C166.15 268.566 153.084 280.164 152.185 295.378L151.525 341.471C151.525 341.471 143.623 349.993 145.971 360.252 147.529 367.045 155.571 373.409 177.289 373.948 205.44 374.647 205.3 366.855 206.489 346.786L207.278 298.655C208.177 283.441 196.579 270.374 181.365 269.475Z" fill="#FFFFFF" fill-rule="nonzero" fill-opacity="1" transform="matrix(-1 0 0 1 782 172.137)"/><path d="M180.436 375.726C179.417 375.726 178.348 375.716 177.249 375.686 152.694 375.077 145.761 367.165 144.263 360.632 142.055 350.972 148.029 342.91 149.777 340.802L150.436 295.348C150.906 287.446 154.392 280.274 160.246 275.069 166.11 269.864 173.643 267.257 181.465 267.717 197.618 268.676 209.976 282.601 209.017 298.745L208.237 346.806 208.157 348.115C207.059 366.805 206.539 375.726 180.426 375.726ZM179.697 271.163C173.373 271.163 167.339 273.451 162.574 277.686 157.409 282.272 154.342 288.595 153.933 295.478L153.273 341.491C153.273 341.921 153.104 342.34 152.804 342.65 152.734 342.73 145.561 350.642 147.669 359.853 149.387 367.375 159.927 371.76 177.329 372.19 203.232 372.829 203.552 367.055 204.671 347.915L204.741 346.676 205.52 298.615C206.369 284.31 195.48 272.052 181.255 271.203 180.735 271.173 180.206 271.153 179.687 271.153Z" fill="#000000" fill-rule="nonzero" fill-opacity="1" transform="matrix(-1 0 0 1 782 172.137)"/><path d="M236.598 132.025C230.824 129.408 228.257 122.595 230.884 116.821L257.317 58.5302C259.935 52.7561 266.748 50.1888 272.522 52.8161 278.296 55.4334 280.863 62.2464 278.236 68.0205L251.803 126.311C249.186 132.085 242.372 134.652 236.598 132.025Z" fill="#FF7300" fill-rule="nonzero" fill-opacity="1" transform="matrix(-1 0 0 1 782 172.137)"/><path d="M278.246 68.0205C280.863 62.2464 278.306 55.4334 272.532 52.8161 266.758 50.1987 259.945 52.7561 257.327 58.5302L254.33 65.1535 275.249 74.6438 278.246 68.0205Z" fill="#FFFFFF" fill-rule="nonzero" fill-opacity="1" transform="matrix(-1 0 0 1 782 172.137)"/><path d="M241.324 134.792C239.495 134.792 237.647 134.413 235.879 133.614 232.662 132.155 230.205 129.528 228.956 126.221 227.707 122.914 227.827 119.318 229.286 116.101L255.719 57.811C257.177 54.5943 259.805 52.1368 263.111 50.888 266.418 49.6393 270.014 49.7592 273.231 51.2277 279.874 54.2446 282.831 62.1066 279.814 68.7498L253.381 127.04C251.174 131.915 246.348 134.812 241.304 134.812ZM267.787 53.5253C266.628 53.5253 265.469 53.7351 264.35 54.1547 261.913 55.0738 259.985 56.8819 258.906 59.2495L232.473 117.54C231.394 119.908 231.314 122.555 232.223 124.992 233.142 127.43 234.95 129.358 237.318 130.437 242.213 132.655 247.997 130.477 250.215 125.592L276.647 67.3013C278.865 62.4063 276.687 56.6222 271.802 54.4044 270.514 53.825 269.155 53.5253 267.787 53.5253Z" fill="#000000" fill-rule="nonzero" fill-opacity="1" transform="matrix(-1 0 0 1 782 172.137)"/><path d="M137.45 114.443C131.486 112.265 128.419 105.672 130.597 99.7182L152.524 39.5896C154.702 33.6257 161.295 30.5588 167.249 32.7366 173.213 34.9143 176.28 41.5076 174.102 47.4615L152.175 107.59C149.997 113.554 143.404 116.621 137.45 114.443Z" fill="#FF7300" fill-rule="nonzero" fill-opacity="1" transform="matrix(-1 0 0 1 782 172.137)"/><path d="M174.112 47.4615C176.29 41.4976 173.213 34.9044 167.259 32.7366 161.295 30.5588 154.702 33.6357 152.534 39.5896L150.047 46.4126 171.635 54.2846 174.122 47.4615Z" fill="#FFFFFF" fill-rule="nonzero" fill-opacity="1" transform="matrix(-1 0 0 1 782 172.137)"/><path d="M141.396 116.891C139.867 116.891 138.329 116.621 136.85 116.081 129.997 113.584 126.451 105.972 128.948 99.1088L150.876 38.9802C153.373 32.1272 160.986 28.5808 167.849 31.0783 171.175 32.287 173.823 34.7245 175.311 37.9313 176.799 41.138 176.959 44.7343 175.741 48.0509L153.813 108.18C152.604 111.496 150.167 114.153 146.96 115.642 145.182 116.471 143.284 116.881 141.386 116.881ZM163.323 33.7855C159.347 33.7855 155.601 36.243 154.163 40.189L132.235 100.318C130.397 105.362 133.004 110.967 138.049 112.805 140.497 113.694 143.134 113.584 145.501 112.485 147.859 111.386 149.647 109.438 150.536 106.991L172.474 46.8621C173.363 44.4146 173.253 41.7773 172.154 39.4098 171.055 37.0422 169.107 35.264 166.66 34.3749 165.561 33.9753 164.442 33.7855 163.333 33.7855Z" fill="#000000" fill-rule="nonzero" fill-opacity="1" transform="matrix(-1 0 0 1 782 172.137)"/><path d="M156.29 313.67C212.663 324.039 239.426 313.03 258.546 284.759 276.697 257.917 286.188 191.994 280.713 164.292 271.123 115.782 229.765 102.375 196.3 96.2217 162.834 90.068 119.418 87.8603 93.1848 129.787 78.2101 153.723 63.605 218.707 71.0175 250.254 78.8295 283.481 99.918 303.3 156.28 313.68Z" fill="#FF7300" fill-rule="nonzero" fill-opacity="1" transform="matrix(-1 0 0 1 782 172.137)"/><path d="M193.183 319.274C182.334 319.274 170.056 317.975 155.971 315.388 127.78 310.203 108.21 302.741 94.3636 291.902 81.5267 281.852 73.5749 268.746 69.3192 250.644 65.8827 236.009 66.8517 212.743 71.9965 186.819 76.7316 162.924 84.2839 140.716 91.7064 128.848 101.646 112.965 114.963 101.976 131.306 96.1718 132.215 95.8521 133.214 96.3216 133.534 97.2307 133.853 98.1398 133.384 99.1388 132.475 99.4584 116.901 104.983 104.184 115.492 94.6733 130.697 79.4888 154.962 65.603 219.526 72.7257 249.835 80.9773 284.939 104.493 302.351 156.61 311.941 208.727 321.532 236.898 313.63 257.107 283.77 274.56 257.977 284.559 192.703 279.005 164.622 275.409 146.41 266.798 131.666 253.411 120.827 252.662 120.217 252.542 119.118 253.152 118.369 253.761 117.62 254.86 117.5 255.609 118.109 269.645 129.488 278.675 144.912 282.432 163.943 285.139 177.669 284.3 201.115 280.214 225.13 275.788 251.184 268.416 273.271 259.995 285.728 249.575 301.133 237.468 310.553 221.903 315.368 213.502 317.965 204.052 319.264 193.183 319.264Z" fill="#000000" fill-rule="nonzero" fill-opacity="1" transform="matrix(-1 0 0 1 782 172.137)"/><path d="M235.06 109.358C234.82 109.358 234.57 109.308 234.331 109.198 223.861 104.403 211.644 100.827 195.89 97.93 180.795 95.1528 168.548 94.1339 157.349 94.7333 156.41 94.7832 155.561 94.044 155.511 93.085 155.461 92.1159 156.201 91.2968 157.16 91.2468 168.638 90.6375 181.145 91.6764 196.519 94.5035 212.563 97.4605 225.04 101.117 235.779 106.032 236.658 106.431 237.038 107.47 236.638 108.349 236.349 108.989 235.709 109.368 235.05 109.368Z" fill="#000000" fill-rule="nonzero" fill-opacity="1" transform="matrix(-1 0 0 1 782 172.137)"/><path d="M169.467 214.851C242.462 230.115 252.143 202.683 254.39 188.727 262.772 136.65 215.19 122.295 189.926 117.011 164.662 111.726 115.322 105.822 102.136 156.89 98.5993 170.586 96.4815 199.586 169.477 214.851Z" fill="#FFFFFF" fill-rule="nonzero" fill-opacity="1" transform="matrix(-1 0 0 1 782 172.137)"/><path d="M114.783 163.553C114.093 163.553 113.474 163.073 113.324 162.374 113.144 161.565 113.654 160.766 114.463 160.586L126.351 157.969C127.17 157.789 127.959 158.298 128.139 159.108 128.319 159.917 127.809 160.716 127 160.896L115.112 163.513C115.003 163.533 114.893 163.553 114.793 163.553Z" fill="#000000" fill-rule="nonzero" fill-opacity="1" transform="matrix(-1 0 0 1 782 172.137)"/><path d="M128.559 151.315C128.349 151.315 128.129 151.266 127.919 151.176L116.961 146.011C116.211 145.661 115.892 144.762 116.241 144.013 116.591 143.264 117.48 142.944 118.239 143.294L129.198 148.458C129.947 148.808 130.267 149.707 129.917 150.456 129.658 150.996 129.118 151.315 128.559 151.315Z" fill="#000000" fill-rule="nonzero" fill-opacity="1" transform="matrix(-1 0 0 1 782 172.137)"/><path d="M236.209 187.578C235.919 187.578 235.629 187.499 235.37 187.319L224.631 180.076C223.941 179.617 223.762 178.678 224.221 177.998 224.681 177.309 225.62 177.129 226.299 177.589L237.038 184.831C237.727 185.291 237.907 186.23 237.448 186.909 237.158 187.339 236.688 187.568 236.199 187.568Z" fill="#000000" fill-rule="nonzero" fill-opacity="1" transform="matrix(-1 0 0 1 782 172.137)"/><path d="M227.428 170.436C226.639 170.436 225.969 169.817 225.929 169.017 225.889 168.188 226.519 167.489 227.348 167.439L240.285 166.77C241.114 166.72 241.813 167.359 241.863 168.188 241.903 169.017 241.274 169.717 240.444 169.767L227.508 170.436C227.508 170.436 227.458 170.436 227.428 170.436Z" fill="#000000" fill-rule="nonzero" fill-opacity="1" transform="matrix(-1 0 0 1 782 172.137)"/><path d="M184.162 154.662C183.523 157.919 180.416 160.067 177.239 159.457 174.062 158.848 172.014 155.721 172.654 152.464 173.293 149.208 176.38 147.07 179.557 147.669 182.733 148.269 184.801 151.405 184.162 154.662Z" fill="#FF0000" fill-rule="nonzero" fill-opacity="1" transform="matrix(-1 0 0 1 782 172.137)"/><path d="M196.579 172.444C191.614 171.845 183.093 171.035 175.611 169.567 168.168 168.098 161.365 166.48 156.34 164.552 156.34 164.552 146.9 193.702 172.564 197.219 196.569 200.505 196.569 172.434 196.569 172.434Z" fill="#FF8778" fill-rule="nonzero" fill-opacity="1" transform="matrix(-1 0 0 1 782 172.137)"/><path d="M176.36 199.237C175.071 199.237 173.733 199.147 172.344 198.947 164.972 197.938 159.587 194.811 156.35 189.656 149.847 179.307 154.482 164.622 154.692 164.003 154.842 163.543 155.172 163.173 155.601 162.964 156.031 162.754 156.53 162.734 156.98 162.914 161.335 164.582 167.369 166.15 175.96 167.839 181.914 169.007 188.627 169.767 193.522 170.316 194.721 170.456 195.83 170.576 196.789 170.696 197.668 170.806 198.327 171.545 198.327 172.434 198.327 173.023 198.228 187.009 189.546 194.581 186 197.668 181.575 199.227 176.35 199.227ZM157.539 166.85C156.59 170.836 154.882 180.775 159.317 187.818 161.975 192.044 166.52 194.631 172.814 195.49 178.767 196.31 183.613 195.121 187.239 191.964 193.173 186.799 194.471 177.619 194.751 173.982 194.232 173.922 193.692 173.862 193.123 173.803 188.158 173.243 181.365 172.474 175.271 171.275 167.599 169.767 161.885 168.338 157.529 166.84Z" fill="#000000" fill-rule="nonzero" fill-opacity="1" transform="matrix(-1 0 0 1 782 172.137)"/><path d="M214.811 165.951C214.411 165.951 214.001 165.811 213.672 165.531L206.959 159.787C206.409 159.317 206.209 158.558 206.439 157.879 206.669 157.199 207.308 156.73 208.028 156.71L216.699 156.4C217.638 156.37 218.477 157.12 218.507 158.089 218.537 159.058 217.788 159.867 216.819 159.897L212.633 160.047 215.939 162.874C216.679 163.503 216.759 164.602 216.129 165.341 215.78 165.741 215.29 165.951 214.801 165.951Z" fill="#000000" fill-rule="nonzero" fill-opacity="1" transform="matrix(-1 0 0 1 782 172.137)"/><path d="M144.033 151.206C143.234 151.206 142.514 150.656 142.325 149.847 142.115 148.908 142.704 147.969 143.643 147.759L148.199 146.73 144.433 144.053C143.643 143.493 143.464 142.405 144.013 141.615 144.572 140.826 145.661 140.646 146.45 141.206L153.413 146.141C153.973 146.54 154.252 147.23 154.113 147.909 153.983 148.588 153.453 149.118 152.784 149.268L144.403 151.166C144.273 151.196 144.143 151.206 144.013 151.206Z" fill="#000000" fill-rule="nonzero" fill-opacity="1" transform="matrix(-1 0 0 1 782 172.137)"/><path d="M110.877 155.941 129.777 141.186 143.533 197.788 91.9661 170.696 110.877 155.941Z" fill="#FFFF00" fill-rule="nonzero" fill-opacity="1" transform="matrix(-1 0 0 1 782 172.137)"/><path d="M143.533 199.536C143.254 199.536 142.974 199.466 142.724 199.336L91.1669 172.244C90.6375 171.964 90.2878 171.445 90.2379 170.856 90.1879 170.266 90.4377 169.687 90.9072 169.317L128.719 139.807C129.188 139.438 129.807 139.338 130.367 139.538 130.926 139.737 131.356 140.197 131.486 140.776L145.242 197.378C145.402 198.048 145.162 198.747 144.622 199.167 144.313 199.416 143.933 199.536 143.543 199.536ZM95.1828 170.406 140.916 194.441 128.719 144.233 111.946 157.319C111.946 157.319 111.946 157.319 111.946 157.319L95.1728 170.406Z" fill="#000000" fill-rule="nonzero" fill-opacity="1" transform="matrix(-1 0 0 1 782 172.137)"/><path d="M134.473 155.461C134.473 160.57 123.738 164.712 110.497 164.712 97.2559 164.712 86.5216 160.57 86.5216 155.461 86.5216 150.352 97.2559 146.211 110.497 146.211 123.738 146.211 134.473 150.352 134.473 155.461Z" fill="#FFD100" fill-rule="nonzero" fill-opacity="1" transform="matrix(-0.788333 -0.615249 -0.615249 0.788333 854.256 273.014)"/><path d="M96.0219 173.673C93.5445 173.673 91.5165 172.943 90.2179 171.285 85.8224 165.651 93.9041 154.452 103.734 146.78 108.949 142.714 114.493 139.657 119.338 138.189 124.723 136.561 128.788 137.07 130.786 139.627 132.784 142.185 132.285 146.251 129.398 151.076 126.791 155.421 122.485 160.057 117.27 164.122 110.337 169.527 101.926 173.663 96.0219 173.663ZM124.932 140.756C123.654 140.756 122.085 141.016 120.347 141.545 115.902 142.894 110.767 145.731 105.882 149.547 95.023 158.019 91.047 166.67 92.9751 169.137 94.9031 171.605 104.264 169.847 115.122 161.375 120.007 157.559 124.013 153.273 126.401 149.288 128.409 145.941 129.028 143.064 128.029 141.785 127.5 141.096 126.411 140.756 124.942 140.756Z" fill="#000000" fill-rule="nonzero" fill-opacity="1" transform="matrix(-1 0 0 1 782 172.137)"/><path d="M56.0328 228.047C48.92 220.705 43.2359 200.305 79.6087 178.458 109.668 160.396 124.543 169.367 129.728 179.816 135.192 190.835 131.566 202.283 121.676 207.808 113.115 212.593 106.162 211.684 95.942 219.176 86.7314 225.929 69.529 241.963 56.0428 228.047Z" fill="#FFFFFF" fill-rule="nonzero" fill-opacity="1" transform="matrix(-1 0 0 1 782 172.137)"/><path d="M68.1604 235.32C63.5951 235.32 59.0197 233.651 54.7741 229.266L54.7741 229.266C50.4185 224.77 48.3406 218.057 49.2197 211.324 50.2986 203.083 56.2825 190.426 78.6996 176.969 94.2038 167.659 107.24 164.452 117.45 167.439 123.544 169.227 128.459 173.343 131.286 179.047 137.09 190.755 133.484 203.212 122.525 209.346 118.829 211.414 115.392 212.473 112.066 213.492 107.48 214.911 102.735 216.369 96.971 220.595 96.0219 221.294 94.983 222.083 93.8841 222.932 87.3208 227.977 77.7506 235.32 68.1804 235.33ZM109.678 169.867C101.546 169.867 91.6164 173.283 80.5078 179.956 59.2895 192.703 53.6752 204.291 52.6962 211.774 51.5973 220.205 55.9329 225.43 57.2915 226.828 68.2903 238.177 82.4059 227.328 91.7463 220.155 92.8752 219.286 93.9341 218.477 94.9031 217.768 101.147 213.192 106.172 211.644 111.037 210.145 114.333 209.126 117.45 208.167 120.817 206.289 130.067 201.125 133.084 190.555 128.149 180.596 126.461 177.189 123.064 172.724 116.461 170.796 114.363 170.186 112.096 169.877 109.668 169.877Z" fill="#000000" fill-rule="nonzero" fill-opacity="1" transform="matrix(-1 0 0 1 782 172.137)"/><path d="M170.676 297.956C170.596 297.956 170.526 297.956 170.446 297.936 169.487 297.806 168.818 296.927 168.938 295.978 168.967 295.768 171.515 275.149 159.018 265.908 145.362 255.809 140.277 246.418 140.067 246.019 139.617 245.17 139.937 244.111 140.796 243.651 141.645 243.192 142.704 243.521 143.164 244.37 143.244 244.53 148.189 253.541 161.105 263.091 167.009 267.457 170.836 274.63 172.164 283.84 173.153 290.683 172.444 296.198 172.414 296.427 172.294 297.306 171.545 297.946 170.686 297.946Z" fill="#FFFF00" fill-rule="nonzero" fill-opacity="1" transform="matrix(-1 0 0 1 782 172.137)"/><path d="M237.288 234.461C246.998 245.629 241.573 277.097 191.365 285.668 156.8 291.572 146.271 277.377 145.362 265.749 144.393 253.481 152.025 244.211 163.253 242.772 172.983 241.523 179.097 244.96 191.375 241.813 202.443 238.976 207.338 233.791 214.581 230.515 221.943 227.188 231.444 227.757 237.288 234.461Z" fill="#FFFFFF" fill-rule="nonzero" fill-opacity="1" transform="matrix(-1 0 0 1 782 172.137)"/><path d="M176.34 288.815C166.15 288.815 158.119 286.557 152.334 282.062 147.22 278.086 144.133 272.342 143.623 265.888 142.594 252.862 150.586 242.642 163.044 241.034 167.239 240.494 170.826 240.794 174.292 241.084 179.077 241.483 184.022 241.893 190.945 240.115 197.848 238.347 202.243 235.639 206.499 233.022 208.917 231.534 211.204 230.125 213.872 228.926 221.344 225.55 231.893 225.6 238.616 233.322L238.616 233.322C243.302 238.706 244.35 247.268 241.364 255.649 233.372 278.016 203.952 285.309 191.674 287.407 186.12 288.356 181.015 288.825 176.35 288.825ZM167.879 244.231C166.47 244.231 165.031 244.301 163.483 244.5 152.974 245.849 146.241 254.53 147.11 265.609 147.36 268.766 148.648 274.749 154.482 279.295 161.995 285.139 174.652 286.747 191.075 283.94 202.753 281.942 230.694 275.079 238.057 254.45 240.584 247.367 239.765 239.965 235.969 235.589 230.435 229.216 221.604 229.246 215.31 232.093 212.853 233.202 210.655 234.55 208.327 235.989 204.062 238.616 199.227 241.593 191.814 243.491 184.322 245.409 179.067 244.98 174.002 244.56 171.944 244.39 169.966 244.231 167.879 244.231Z" fill="#000000" fill-rule="nonzero" fill-opacity="1" transform="matrix(-1 0 0 1 782 172.137)"/></g></g></g></g></g></svg>